<svg xmlns="http://www.w3.org/2000/svg" xmlns:xlink="http://www.w3.org/1999/xlink" version="1.1" x="0px" y="0px" viewBox="0 0 100 125" enable-background="new 0 0 100 100" xml:space="preserve"><g><path d="M59.2,46.5c-1.4,0.2-3.6,2.4-3.7,2.5c-0.1,0.1-0.1,0.3,0,0.4c0,0,0.1,0.1,0.2,0.1c0.1,0,0.1,0,0.2-0.1   c0.6-0.6,2.4-2.2,3.4-2.3c2.4-0.3,4.5-0.4,8.2,1.9c0.1,0.1,0.3,0,0.3-0.1s0-0.3-0.1-0.3C63.8,46.2,61.6,46.2,59.2,46.5z"/><path d="M59.5,77.6c0.2,0,0.4-0.1,0.5-0.3c0.1-0.3,0-0.5-0.3-0.7c-3.2-1.3-5.6-1.3-6.9-1.3l-0.4,0c-0.7,0-1,0.2-1.3,0.4   c-0.2,0.1-0.5,0.2-1,0.3c-0.6,0-0.8-0.1-1.1-0.2c-0.3-0.1-0.8-0.2-1.8-0.4c-2.2-0.4-6.4,1.1-6.6,1.2c-0.3,0.1-0.4,0.4-0.3,0.6   c0.1,0.3,0.4,0.4,0.6,0.3c0,0,4.1-1.5,6.1-1.2c0.9,0.2,1.3,0.3,1.6,0.4c0.4,0.1,0.7,0.2,1.4,0.2c0,0,0,0,0,0c0.8,0,1.2-0.2,1.5-0.4   c0.2-0.1,0.4-0.2,0.8-0.2l0.4,0c1.2,0,3.5-0.1,6.5,1.2C59.4,77.6,59.4,77.6,59.5,77.6z"/><path d="M65.6,41.8c-1.6-0.2-4.5,0-7.5,0.6c-1.2,0.3-2.4,1.2-3,2.3c-0.5,0.9,0.5,1.4,1.2,1.4c1.4,0,4.4-1.3,7.5-1   c3,0.2,4.5,1.8,5.6,1.8c1.1-0.1,0.1-1.7,0.1-1.7S68.6,42.2,65.6,41.8z"/><path d="M57,60.6c0-0.3-0.3-0.5-0.6-0.4c-0.3,0-0.5,0.3-0.4,0.6c0,0,0.2,1.2,0.9,2.1c0.3,0.4,0.7,1.7,0.5,2.6   c-0.1,0.4-0.2,0.6-0.4,0.7c-0.2,0.1-0.4,0.2-0.6,0.3c0-0.1,0-0.2,0-0.3c0-0.2-0.1-0.5-0.4-0.7c-0.6-0.5-1.8-0.5-2.7-0.3   c-0.4,0.1-0.8,0.3-1.2,0.5c-0.6,0.3-1.2,0.6-2.3,0.7c-0.9,0-1.2-0.2-1.6-0.4c-0.3-0.2-0.7-0.5-1.4-0.6c0,0,0,0,0,0   c-0.1,0-0.2-0.1-0.3-0.1c-1.4-0.3-2.7,0.2-3,0.7c-0.1,0.1-0.1,0.3,0,0.4c-0.1-0.1-0.3-0.1-0.4-0.2c-0.2-0.1-0.3-0.4-0.4-0.7   c-0.2-0.9,0.2-2.2,0.5-2.6c0.7-0.9,0.9-2,0.9-2.1c0-0.3-0.2-0.5-0.4-0.6c-0.3,0-0.5,0.2-0.6,0.4c0,0-0.1,0.9-0.7,1.6   c-0.5,0.7-0.9,2.2-0.7,3.4c0.1,0.6,0.4,1.1,0.9,1.4c1,0.6,1.7,0.7,2.5,0.7c0.2,0,0.5,0,0.8,0l0-0.5l-0.1-0.5   c0.6-0.1,0.9-0.3,1.1-0.4c0.4,0.1,0.7,0.3,0.9,0.5c0.5,0.3,0.9,0.6,2,0.6c0.1,0,0.1,0,0.2,0c1.3,0,2.1-0.5,2.7-0.8   c0.3-0.1,0.5-0.3,0.7-0.3c0.5,0.2,0.9,0.4,1.3,0.5c-0.1,0-0.2,0-0.3,0c-0.3,0-0.5,0.2-0.5,0.5c0,0.3,0.2,0.5,0.5,0.5   c0.3,0,0.5,0,0.7,0c0.8,0,1.5-0.1,2.4-0.7c0.4-0.3,0.7-0.8,0.9-1.4c0.2-1.2-0.2-2.7-0.7-3.4C57.1,61.5,57,60.6,57,60.6z"/><path d="M78.1,43.2c-0.3-0.4-0.7-0.7-1.2-0.7c-0.2,0-0.5,0.1-0.7,0.2c1-5.2,2-12.2,1-18.2C74.7,9,63.1,6.5,51.4,6.5   c-12.6,0-25.7,4.8-27.8,17.3c-1.1,6.4-0.6,13.7,0.5,18.9c-0.2-0.1-0.5-0.2-0.9-0.2c-0.5,0-0.9,0.2-1.2,0.7c-0.6,1-0.4,2.9-0.2,4.3   l0.2,1.2c0.2,1.2,0.4,2.8,0.2,4.9c-0.2,2.4,1.9,6,2.7,7.2L25,61.7c-0.2,2.6-0.5,5.9-0.1,7.6c0.8,4.1,4.5,10.4,7.9,14.6   c1.3,1.7,3.2,3.6,4.8,5.1c0,0.1,0,0.2,0.1,0.3l0.1,0.2c4,5.9,11.9,6.1,12.8,6.1c0.1,0,0.3,0,0.4,0c2-0.1,9.4-2,11.6-6   c2.1-2.1,5.9-6.1,9.4-11.4c1.9-2.9,3.2-6.5,3.7-8.6c0.4-1.7,0.4-2.3,0.3-4.1c0-0.7-0.1-1.6-0.1-2.8c0-0.5-0.1-1.9-0.2-2.3   c0,0,0-0.1,0-0.1c0.8-1.3,2.6-4.5,2.4-6.7c-0.2-2.1,0.1-3.7,0.2-4.9l0.2-1.2C78.5,46.1,78.8,44.2,78.1,43.2z M25.1,58.5   c0,0.2,0,0.3,0,0.5c-1.1-1.8-2-4-1.8-5.4c0.2-2.2-0.1-3.9-0.2-5.2l-0.2-1.2c-0.2-1.1-0.4-2.9,0-3.6c0.1-0.2,0.2-0.2,0.3-0.2   c0.2,0,0.4,0.1,0.6,0.2c0.5,2.3,1,3.9,1.1,4.2c0,0.2,0,0.5,0,0.7c0,0,0,0,0,0c0,0.2,0,0.4,0,0.6c0,0.1,0,0.2,0,0.3   c0,0.1,0,0.2,0,0.3c0,0.2,0,0.4,0,0.5c0,1.4,0.1,2.8,0.2,4.2c0,0.4,0,0.8,0.1,1.2c0,0.1,0,0.2,0,0.3c0,0.3,0,0.6,0,0.8   c0,0.1,0,0.3,0,0.4c0,0.2,0,0.4,0,0.7C25.1,58.3,25.1,58.4,25.1,58.5z M51.8,83.5c0.2-0.7,1.2-1.5,2.7-2.2l-0.4-0.9   c-0.7,0.2-2.5,0.8-4.4,0.8c-1.2,0-2.3-0.2-3.1-0.7l-0.5,0.9c2.7,1.7,2.2,2.4,1.9,2.9l0,0.1c-0.2,0.2-1.3,0.6-2.8,0.6   c-1.6,0-3.8-0.5-5.4-3c-0.3-0.6-0.5-2.9,0-5c0.3-1.2,0.7-2,1.2-2.3c0.3-0.2,0.6-0.4,1-0.6c1.8-1.1,4.5-2.8,5.9-2.8   c0.1,0,0.1,0,0.2,0c0.9,0.1,1.1,0.4,1.2,0.5c0.2,0.2,0.4,0.4,0.8,0.4c0.5,0,0.7-0.3,0.9-0.6c0.2-0.2,0.3-0.4,0.7-0.4   c1.1,0.1,6,1.8,7.3,3.7c1.3,2.1,1.8,5.9,1.3,7c-0.3,0.8-4.4,2.8-7,2.8c-0.5,0-1.1-0.1-1.4-0.4C51.7,83.9,51.8,83.6,51.8,83.5z    M74.5,69.3c-0.5,2.2-1.8,5.6-3.5,8.3c-3,4.6-6.2,8.1-8.4,10.3c0.6-8.2-0.5-13.6-2-15.3c-1.5-1.7-6.7-4-10.5-4   c-3.7,0-8.9,2-10.7,3.7c-1.6,1.5-2.9,9-2.3,15c-1.3-1.3-2.7-2.8-3.7-4.1c-3.3-4.1-7-10.2-7.7-14.1c-0.3-1.5-0.1-4.5,0.1-7l0,0   l0.1-1.5c0-0.5,0.1-1,0.1-1.4c0.1-1.3,0-3-0.1-4.7c-0.1-1.4-0.2-2.9-0.2-4.2c0-0.6,0-1.5,0.1-2.5c0.8-8,4.1-24.3,5.2-26   c4.9,1.8,11.4,2.8,18.9,2.8c7,0,14.6-0.9,20.4-2.4c0.1,0.2,0.2,0.4,0.2,0.6c0.1,0.4,0.3,0.7,0.4,1.1c0.1,0.3,0.2,0.6,0.3,0.9   c0,0,0,0.1,0,0.1c0.7,3.6,1.7,9.9,2.5,18.2c0.1,0.9,0.2,2,0.4,3.2c0,0.2,0,0.5,0,0.7c0,0.3,0,0.5,0,0.8c0,0,0,0,0,0l0,0l0,0.9   c0,0,0,0.1,0,0.2c0,0.8,0,1.7,0,2.5c0,0.9,0,1.8,0,2.7l0,0.2c0.1,2.1,0.2,4.1,0.3,5.7c0.1,1.2,0.2,1.9,0.2,2.3   c0,1.2,0.1,2.1,0.1,2.8C74.9,67.2,74.9,67.8,74.5,69.3z M77.3,47.3l-0.2,1.2c-0.2,1.3-0.4,3-0.2,5.2c0.1,1.1-0.4,2.8-1.5,4.8   c-0.1-1.2-0.1-2.6-0.2-4c0-0.1,0-0.2,0-0.2c0-0.8,0-1.6,0-2.4c0-0.7,0-1.5,0-2.2h0c0,0,0-0.1,0-0.1l0,0c0-0.4,0-0.7,0-1   c0.1-0.1,0.1-0.3,0.1-0.4c0.1-0.4,0.6-2,1.1-4.2c0.1-0.1,0.4-0.2,0.6-0.2c0.1,0,0.2,0,0.3,0.2C77.7,44.4,77.5,46.2,77.3,47.3z"/><path d="M63.9,47.8c-0.8-0.3-1.5-0.5-2.2-0.6c-1-0.1-1.9,0.1-2.7,0.5c-0.6,0.4-1.1,0.8-1.4,1.1c-0.1,0.1-0.3,0.3-0.4,0.3   c-0.6,0.4-1,0.7-1,0.7c-0.2,0.1-0.3,0.4-0.2,0.7c0.1,0.2,0.3,0.5,0.9,0.5c0.1,0,0.3,0,0.5,0c0.1,0,0.2,0,0.4,0   c1.2,0.5,2.7,0.8,4.2,0.8c0.5,0,1.1,0,1.6-0.1c1.7-0.2,3-1.5,3-1.6c0.1-0.1,0.2-0.2,0.2-0.4c0-0.1-0.1-0.3-0.2-0.4   C66.4,49.3,65.4,48.4,63.9,47.8z M58,50.1c0,0-0.1,0-0.1,0c0.1-0.1,0.3-0.2,0.4-0.4c0.2-0.2,0.6-0.5,0.9-0.8   c0.1,0.8,0.5,1.4,1.2,1.8C59.5,50.6,58.7,50.4,58,50.1z M63.3,50.7c-0.3,0-0.5,0-0.8,0.1c0.7-0.3,1.2-1.1,1.3-1.9   c0.7,0.3,1.2,0.7,1.6,0.9C64.9,50.1,64.1,50.6,63.3,50.7z"/><path d="M42.2,45.7c0.7,0,1.7-0.5,1.2-1.4c-0.6-1.1-1.8-2-3-2.3c-2.9-0.7-5.9-0.9-7.5-0.6c-3.1,0.4-3.9,3.3-3.9,3.3   s-0.9,1.7,0.1,1.7c1.1,0.1,2.6-1.6,5.6-1.8C37.8,44.5,40.9,45.7,42.2,45.7z"/><path d="M40.1,47c1.3,0.2,3.4,2.3,3.4,2.3c0,0,0.1,0.1,0.2,0.1c0.1,0,0.1,0,0.2-0.1c0.1-0.1,0.1-0.3,0-0.4   c-0.1-0.1-2.3-2.3-3.7-2.5c-2.5-0.3-4.6-0.4-8.6,1.9c-0.1,0.1-0.2,0.2-0.1,0.3c0.1,0.1,0.2,0.2,0.3,0.1   C35.7,46.7,37.7,46.7,40.1,47z"/><path d="M42.4,51c0.2,0,0.3,0,0.5,0c0.5,0,0.8-0.3,0.9-0.5c0.1-0.2,0-0.5-0.2-0.7c0,0-0.4-0.2-1-0.7c-0.1-0.1-0.2-0.2-0.4-0.3   c-0.3-0.3-0.8-0.8-1.4-1.1c-0.8-0.4-1.7-0.6-2.7-0.5c-0.7,0.1-1.5,0.2-2.2,0.6c-1.5,0.6-2.5,1.5-2.5,1.6c-0.1,0.1-0.2,0.2-0.2,0.4   c0,0.1,0.1,0.3,0.2,0.4c0.1,0.1,1.4,1.3,3,1.6c0.5,0.1,1,0.1,1.6,0.1c1.5,0,3-0.3,4.2-0.8C42.1,51,42.2,51,42.4,51z M36.4,50.7   c-0.8-0.1-1.6-0.6-2-0.9c0.4-0.3,0.9-0.6,1.6-0.9c0.1,0.8,0.6,1.6,1.3,1.9C36.9,50.7,36.7,50.7,36.4,50.7z M41.6,50.1   c-0.7,0.3-1.5,0.5-2.3,0.6c0.6-0.4,1.1-1,1.2-1.8c0.4,0.3,0.7,0.5,0.9,0.8c0.2,0.2,0.3,0.3,0.4,0.4C41.8,50,41.7,50.1,41.6,50.1z"/></g></svg>
